<svg width="49" height="49" viewBox="0 0 49 49" fill="none" xmlns="http://www.w3.org/2000/svg">
<rect x="1" y="1" width="47" height="47" stroke="#EC9649" stroke-width="2"/>
<path d="M24.4321 17.4542V19.1832H16.8011V17.4542H24.4321ZM33.1947 10.6682C33.1947 11.1535 33.0777 11.6085 32.8437 12.0332C32.6183 12.4579 32.2587 12.8002 31.7647 13.0602C31.2793 13.3202 30.664 13.4502 29.9187 13.4502H28.3977V16.9342H26.5777V7.8602H29.9187C30.6207 7.8602 31.2187 7.98154 31.7127 8.2242C32.2067 8.46687 32.575 8.80054 32.8177 9.2252C33.069 9.64987 33.1947 10.1309 33.1947 10.6682ZM29.8407 11.9812C30.3433 11.9812 30.716 11.8685 30.9587 11.6432C31.2013 11.4092 31.3227 11.0842 31.3227 10.6682C31.3227 9.7842 30.8287 9.3422 29.8407 9.3422H28.3977V11.9812H29.8407ZM21.233 32.2802C21.7443 32.3755 22.1646 32.6312 22.494 33.0472C22.8233 33.4632 22.988 33.9399 22.988 34.4772C22.988 34.9625 22.8666 35.3915 22.624 35.7642C22.39 36.1282 22.0476 36.4142 21.597 36.6222C21.1463 36.8302 20.6133 36.9342 19.998 36.9342H16.085V27.8602H19.829C20.4443 27.8602 20.973 27.9599 21.415 28.1592C21.8656 28.3585 22.2036 28.6359 22.429 28.9912C22.663 29.3465 22.78 29.7495 22.78 30.2002C22.78 30.7289 22.637 31.1709 22.351 31.5262C22.0736 31.8815 21.701 32.1329 21.233 32.2802ZM17.905 31.6042H19.569C20.0023 31.6042 20.336 31.5089 20.57 31.3182C20.804 31.1189 20.921 30.8372 20.921 30.4732C20.921 30.1092 20.804 29.8275 20.57 29.6282C20.336 29.4289 20.0023 29.3292 19.569 29.3292H17.905V31.6042ZM19.738 35.4522C20.18 35.4522 20.5223 35.3482 20.765 35.1402C21.0163 34.9322 21.142 34.6375 21.142 34.2562C21.142 33.8662 21.012 33.5629 20.752 33.3462C20.492 33.1209 20.141 33.0082 19.699 33.0082H17.905V35.4522H19.738ZM32.5635 37.4542V39.1832H24.9325V37.4542H32.5635Z" fill="#EC9649"/>
</svg>
